<svg width="232" height="48" viewBox="0 0 232 48" fill="none" xmlns="http://www.w3.org/2000/svg">
<g clip-path="url(#clip0_1_18)">
<path d="M31.9968 25.4392C29.8437 22.0697 26.1768 20.0577 22.1875 20.0577C18.1982 20.0577 14.5313 22.0697 12.3785 25.4392L7.19043 33.5585C6.32964 34.9054 5.93246 36.4618 6.04161 38.0581C6.15076 39.6548 6.75638 41.1416 7.79277 42.3589C8.82988 43.5751 10.2003 44.4064 11.7558 44.7631C13.3113 45.1197 14.9058 44.9674 16.3667 44.3232L16.4646 44.2797C20.1406 42.691 24.3413 42.7057 28.0079 44.3232C28.9537 44.7404 29.9558 44.9513 30.967 44.9513C31.5168 44.9513 32.0698 44.8887 32.6178 44.7634C34.1732 44.4071 35.5436 43.5758 36.5811 42.3592C37.6179 41.1431 38.2239 39.6559 38.3334 38.0588C38.4429 36.4618 38.0457 34.9058 37.1849 33.5581L31.9968 25.4392Z" fill="#FFDC26"/>
<path d="M8.58784 25.4286C10.1313 24.8339 11.3038 23.5862 11.8894 21.9152C12.4468 20.3251 12.4012 18.5299 11.7605 16.86C11.1195 15.1912 9.9535 13.8289 8.47723 13.0236C6.92649 12.178 5.22279 12.0403 3.68191 12.6361C0.581886 13.8318 -0.840721 17.6748 0.511066 21.2047C1.59089 24.0143 4.10938 25.7878 6.65562 25.7878C7.30578 25.7878 7.95776 25.6721 8.58784 25.4286Z" fill="#FFDC26"/>
<path d="M18.6545 19.0675C22.5299 19.0675 25.6829 15.464 25.6829 11.0347C25.6829 6.60425 22.5299 3.00001 18.6545 3.00001C14.7795 3.00001 11.6269 6.60425 11.6269 11.0347C11.6269 15.464 14.7795 19.0675 18.6545 19.0675Z" fill="#FFDC26"/>
<path d="M30.7925 21.041H30.7929C31.389 21.2395 31.9972 21.3343 32.6028 21.3343C35.429 21.3343 38.1833 19.2708 39.2343 16.0994C39.8396 14.2738 39.7998 12.3435 39.1223 10.6644C38.4133 8.90662 37.0995 7.63074 35.4225 7.07154C33.745 6.51233 31.9311 6.74561 30.3143 7.72779C28.7697 8.66602 27.5862 10.1884 26.9817 12.0139C25.7059 15.865 27.4154 19.9145 30.7925 21.041Z" fill="#FFDC26"/>
<path d="M45.5935 20.1035L45.5924 20.1024C42.9199 18.122 38.9229 18.9803 36.6819 22.017C34.443 25.0551 34.7931 29.1394 37.4616 31.1213C38.4349 31.8446 39.5848 32.1903 40.7617 32.1903C42.8129 32.1903 44.947 31.14 46.3736 29.2086C48.6121 26.1705 48.2624 22.0862 45.5935 20.1035Z" fill="#FFDC26"/>
</g>
<path d="M64.6321 34.104V31.868H69.9361C70.9588 31.868 71.7474 31.582 72.3021 31.01C72.8741 30.4207 73.1601 29.6407 73.1601 28.67C73.1601 27.682 72.8828 26.9107 72.3281 26.356C71.7734 25.784 70.9761 25.498 69.9361 25.498H64.6321V23.834H69.5721C70.7854 23.834 71.8514 23.9813 72.7701 24.276C73.7061 24.5707 74.4341 25.0647 74.9541 25.758C75.4914 26.434 75.7601 27.3613 75.7601 28.54V28.904C75.7601 30.0133 75.5348 30.958 75.0841 31.738C74.6334 32.5007 73.9488 33.09 73.0301 33.506C72.1114 33.9047 70.9588 34.104 69.5721 34.104H64.6321ZM62.6041 34.104V14.916H65.1521V34.104H62.6041ZM64.6321 25.03V23.366H69.2341C70.3088 23.366 71.0974 23.08 71.6001 22.508C72.1201 21.9187 72.3801 21.1733 72.3801 20.272C72.3801 19.3533 72.1201 18.608 71.6001 18.036C71.0974 17.4467 70.3088 17.152 69.2341 17.152H64.6321V14.916H68.7921C70.8721 14.916 72.4234 15.358 73.4461 16.242C74.4688 17.1087 74.9801 18.3653 74.9801 20.012V20.376C74.9801 21.5373 74.7201 22.4647 74.2001 23.158C73.6801 23.834 72.9521 24.3193 72.0161 24.614C71.0974 24.8913 70.0228 25.03 68.7921 25.03H64.6321ZM79.912 34V20.116H81.888V25.836H81.784C81.784 23.808 82.226 22.326 83.11 21.39C84.0113 20.4367 85.3546 19.96 87.14 19.96H87.608V22.196H86.724C85.3373 22.196 84.2713 22.5687 83.526 23.314C82.7806 24.042 82.408 25.0993 82.408 26.486V34H79.912ZM96.8197 34.468C95.6064 34.468 94.5404 34.26 93.6217 33.844C92.703 33.428 91.923 32.882 91.2817 32.206C90.6577 31.5127 90.181 30.7413 89.8517 29.892C89.5397 29.0427 89.3837 28.176 89.3837 27.292V26.824C89.3837 25.94 89.5484 25.0733 89.8777 24.224C90.207 23.3573 90.6924 22.586 91.3337 21.91C91.975 21.2167 92.755 20.6707 93.6737 20.272C94.5924 19.856 95.641 19.648 96.8197 19.648C97.9984 19.648 99.047 19.856 99.9657 20.272C100.884 20.6707 101.664 21.2167 102.306 21.91C102.947 22.586 103.432 23.3573 103.762 24.224C104.091 25.0733 104.256 25.94 104.256 26.824V27.292C104.256 28.176 104.091 29.0427 103.762 29.892C103.45 30.7413 102.973 31.5127 102.332 32.206C101.708 32.882 100.936 33.428 100.018 33.844C99.099 34.26 98.033 34.468 96.8197 34.468ZM96.8197 32.232C97.8597 32.232 98.7437 32.0067 99.4717 31.556C100.217 31.088 100.78 30.464 101.162 29.684C101.56 28.904 101.76 28.0287 101.76 27.058C101.76 26.07 101.56 25.186 101.162 24.406C100.763 23.626 100.191 23.0107 99.4457 22.56C98.7177 22.1093 97.8424 21.884 96.8197 21.884C95.8144 21.884 94.939 22.1093 94.1937 22.56C93.4484 23.0107 92.8764 23.626 92.4777 24.406C92.079 25.186 91.8797 26.07 91.8797 27.058C91.8797 28.0287 92.0704 28.904 92.4517 29.684C92.8504 30.464 93.4137 31.088 94.1417 31.556C94.887 32.0067 95.7797 32.232 96.8197 32.232ZM111.796 34L114.604 20.584H117.984L121.26 34H119.128L115.852 20.636H116.684L113.85 34H111.796ZM110.522 34V32.024H113.408V34H110.522ZM109.95 34L106.024 20.116H108.416L112.238 34H109.95ZM119.648 34V32.024H122.534V34H119.648ZM120.818 34L124.146 20.116H126.408L123.002 34H120.818ZM134.228 34.416C132.408 34.416 130.995 34.026 129.99 33.246C129.002 32.466 128.49 31.4 128.456 30.048H130.796C130.83 30.5853 131.099 31.0967 131.602 31.582C132.122 32.05 132.997 32.284 134.228 32.284C135.337 32.284 136.186 32.0673 136.776 31.634C137.365 31.1833 137.66 30.6373 137.66 29.996C137.66 29.424 137.443 28.982 137.01 28.67C136.576 28.3407 135.874 28.124 134.904 28.02L133.396 27.864C132.078 27.7253 131.004 27.3353 130.172 26.694C129.34 26.0353 128.924 25.1167 128.924 23.938C128.924 23.054 129.149 22.3 129.6 21.676C130.05 21.0347 130.674 20.5493 131.472 20.22C132.269 19.8733 133.188 19.7 134.228 19.7C135.788 19.7 137.053 20.0467 138.024 20.74C138.994 21.4333 139.497 22.4647 139.532 23.834H137.192C137.174 23.2793 136.914 22.8113 136.412 22.43C135.926 22.0313 135.198 21.832 134.228 21.832C133.257 21.832 132.52 22.0313 132.018 22.43C131.515 22.8287 131.264 23.3313 131.264 23.938C131.264 24.458 131.437 24.874 131.784 25.186C132.148 25.498 132.737 25.6973 133.552 25.784L135.06 25.94C136.55 26.096 137.746 26.512 138.648 27.188C139.549 27.8467 140 28.7827 140 29.996C140 30.8627 139.748 31.634 139.246 32.31C138.76 32.9687 138.084 33.4887 137.218 33.87C136.351 34.234 135.354 34.416 134.228 34.416ZM149.519 34.468C148.306 34.468 147.257 34.26 146.373 33.844C145.489 33.428 144.77 32.882 144.215 32.206C143.66 31.5127 143.244 30.7413 142.967 29.892C142.707 29.0427 142.577 28.176 142.577 27.292V26.824C142.577 25.9227 142.707 25.0473 142.967 24.198C143.244 23.3487 143.66 22.586 144.215 21.91C144.77 21.2167 145.472 20.6707 146.321 20.272C147.188 19.856 148.202 19.648 149.363 19.648C150.871 19.648 152.11 19.9773 153.081 20.636C154.069 21.2773 154.797 22.1093 155.265 23.132C155.75 24.1547 155.993 25.2467 155.993 26.408V27.526H143.669V25.654H154.173L153.601 26.668C153.601 25.68 153.445 24.8307 153.133 24.12C152.821 23.392 152.353 22.8287 151.729 22.43C151.105 22.0313 150.316 21.832 149.363 21.832C148.375 21.832 147.552 22.0573 146.893 22.508C146.252 22.9587 145.766 23.574 145.437 24.354C145.125 25.134 144.969 26.0353 144.969 27.058C144.969 28.046 145.125 28.9387 145.437 29.736C145.766 30.516 146.269 31.14 146.945 31.608C147.621 32.0587 148.479 32.284 149.519 32.284C150.611 32.284 151.495 32.0413 152.171 31.556C152.864 31.0707 153.28 30.5073 153.419 29.866H155.759C155.568 30.8193 155.187 31.6427 154.615 32.336C154.043 33.0293 153.324 33.558 152.457 33.922C151.59 34.286 150.611 34.468 149.519 34.468ZM178.611 27.396V25.16H182.849C183.75 25.16 184.495 24.9867 185.085 24.64C185.674 24.276 186.116 23.7907 186.411 23.184C186.723 22.5773 186.879 21.9013 186.879 21.156C186.879 20.3933 186.723 19.7087 186.411 19.102C186.116 18.4953 185.674 18.0187 185.085 17.672C184.495 17.3253 183.75 17.152 182.849 17.152H178.611V14.916H182.381C183.941 14.916 185.241 15.1673 186.281 15.67C187.338 16.1553 188.135 16.8487 188.673 17.75C189.21 18.6513 189.479 19.7173 189.479 20.948V21.364C189.479 22.5773 189.21 23.6433 188.673 24.562C188.135 25.4633 187.338 26.1653 186.281 26.668C185.241 27.1533 183.941 27.396 182.381 27.396H178.611ZM176.583 34V14.916H179.131V34H176.583ZM198.498 34.468C197.284 34.468 196.236 34.26 195.352 33.844C194.468 33.428 193.748 32.882 193.194 32.206C192.639 31.5127 192.223 30.7413 191.946 29.892C191.686 29.0427 191.556 28.176 191.556 27.292V26.824C191.556 25.9227 191.686 25.0473 191.946 24.198C192.223 23.3487 192.639 22.586 193.194 21.91C193.748 21.2167 194.45 20.6707 195.3 20.272C196.166 19.856 197.18 19.648 198.342 19.648C199.85 19.648 201.089 19.9773 202.06 20.636C203.048 21.2773 203.776 22.1093 204.244 23.132C204.729 24.1547 204.972 25.2467 204.972 26.408V27.526H192.648V25.654H203.152L202.58 26.668C202.58 25.68 202.424 24.8307 202.112 24.12C201.8 23.392 201.332 22.8287 200.708 22.43C200.084 22.0313 199.295 21.832 198.342 21.832C197.354 21.832 196.53 22.0573 195.872 22.508C195.23 22.9587 194.745 23.574 194.416 24.354C194.104 25.134 193.948 26.0353 193.948 27.058C193.948 28.046 194.104 28.9387 194.416 29.736C194.745 30.516 195.248 31.14 195.924 31.608C196.6 32.0587 197.458 32.284 198.498 32.284C199.59 32.284 200.474 32.0413 201.15 31.556C201.843 31.0707 202.259 30.5073 202.398 29.866H204.738C204.547 30.8193 204.166 31.6427 203.594 32.336C203.022 33.0293 202.302 33.558 201.436 33.922C200.569 34.286 199.59 34.468 198.498 34.468ZM213.923 34.156C212.883 34.156 211.982 34.0087 211.219 33.714C210.474 33.4193 209.893 32.9167 209.477 32.206C209.079 31.478 208.879 30.4987 208.879 29.268V15.904H211.271V29.58C211.271 30.3253 211.471 30.906 211.869 31.322C212.285 31.7207 212.866 31.92 213.611 31.92H216.055V34.156H213.923ZM206.487 21.988V20.116H216.055V21.988H206.487ZM224.034 34.416C222.214 34.416 220.802 34.026 219.796 33.246C218.808 32.466 218.297 31.4 218.262 30.048H220.602C220.637 30.5853 220.906 31.0967 221.408 31.582C221.928 32.05 222.804 32.284 224.034 32.284C225.144 32.284 225.993 32.0673 226.582 31.634C227.172 31.1833 227.466 30.6373 227.466 29.996C227.466 29.424 227.25 28.982 226.816 28.67C226.383 28.3407 225.681 28.124 224.71 28.02L223.202 27.864C221.885 27.7253 220.81 27.3353 219.978 26.694C219.146 26.0353 218.73 25.1167 218.73 23.938C218.73 23.054 218.956 22.3 219.406 21.676C219.857 21.0347 220.481 20.5493 221.278 20.22C222.076 19.8733 222.994 19.7 224.034 19.7C225.594 19.7 226.86 20.0467 227.83 20.74C228.801 21.4333 229.304 22.4647 229.338 23.834H226.998C226.981 23.2793 226.721 22.8113 226.218 22.43C225.733 22.0313 225.005 21.832 224.034 21.832C223.064 21.832 222.327 22.0313 221.824 22.43C221.322 22.8287 221.07 23.3313 221.07 23.938C221.07 24.458 221.244 24.874 221.59 25.186C221.954 25.498 222.544 25.6973 223.358 25.784L224.866 25.94C226.357 26.096 227.553 26.512 228.454 27.188C229.356 27.8467 229.806 28.7827 229.806 29.996C229.806 30.8627 229.555 31.634 229.052 32.31C228.567 32.9687 227.891 33.4887 227.024 33.87C226.158 34.234 225.161 34.416 224.034 34.416Z" fill="#111111"/>
<path d="M158.393 29.502V26.434L166.271 14.552L168.013 15.93L160.655 27.058L160.889 27.526H173.161V29.502H158.393ZM168.299 34V20.558H170.639V34H168.299Z" fill="#FFDC26"/>
<defs>
<clipPath id="clip0_1_18">
<rect width="47.8481" height="48" fill="white"/>
</clipPath>
</defs>
</svg>
